REM DIRINDEX 1\2,1\3,1\4
REM DIRNAME cjc151,folder01,folder02,folder03
TITLE ""
FILE "169 169_TOEFL_3900.mp3" MP3
  TRACK 01 AUDIO
    TITLE "2:cjc151_7367"
    INDEX 01 00:00:00
  TRACK 02 AUDIO
    TITLE "0:"
    INDEX 01 00:01:44
  TRACK 03 AUDIO
    TITLE "3:cjc151_7368"
    INDEX 01 00:03:21
  TRACK 04 AUDIO
    TITLE "0:"
    INDEX 01 00:06:49
  TRACK 05 AUDIO
    TITLE "2:cjc151_7369"
    INDEX 01 00:08:26
  TRACK 06 AUDIO
    TITLE "0:"
    INDEX 01 00:09:63
  TRACK 07 AUDIO
    TITLE "3:cjc151_7370"
    INDEX 01 00:11:50
  TRACK 08 AUDIO
    TITLE "0:"
    INDEX 01 00:16:12
  TRACK 09 AUDIO
    TITLE "2:cjc151_7371"
    INDEX 01 00:17:72
  TRACK 10 AUDIO
    TITLE "0:"
    INDEX 01 00:19:01
  TRACK 11 AUDIO
    TITLE "3:cjc151_7372"
    INDEX 01 00:20:63
  TRACK 12 AUDIO
    TITLE "0:"
    INDEX 01 00:24:31
  TRACK 13 AUDIO
    TITLE "2:cjc151_7373"
    INDEX 01 00:26:09
  TRACK 14 AUDIO
    TITLE "0:"
    INDEX 01 00:27:26
  TRACK 15 AUDIO
    TITLE "3:cjc151_7374"
    INDEX 01 00:29:07
  TRACK 16 AUDIO
    TITLE "0:"
    INDEX 01 00:33:44
  TRACK 17 AUDIO
    TITLE "2:cjc151_7375"
    INDEX 01 00:35:29
  TRACK 18 AUDIO
    TITLE "0:"
    INDEX 01 00:36:40
  TRACK 19 AUDIO
    TITLE "3:cjc151_7376"
    INDEX 01 00:38:26
  TRACK 20 AUDIO
    TITLE "0:"
    INDEX 01 00:42:45
  TRACK 21 AUDIO
    TITLE "2:cjc151_7377"
    INDEX 01 00:44:22
  TRACK 22 AUDIO
    TITLE "0:"
    INDEX 01 00:45:51
  TRACK 23 AUDIO
    TITLE "3:cjc151_7378"
    INDEX 01 00:47:30
  TRACK 24 AUDIO
    TITLE "0:"
    INDEX 01 00:50:74
  TRACK 25 AUDIO
    TITLE "2:cjc151_7379"
    INDEX 01 00:52:53
  TRACK 26 AUDIO
    TITLE "0:"
    INDEX 01 00:53:66
  TRACK 27 AUDIO
    TITLE "3:cjc151_7380"
    INDEX 01 00:55:46
  TRACK 28 AUDIO
    TITLE "0:"
    INDEX 01 00:59:41
  TRACK 29 AUDIO
    TITLE "2:cjc151_7381"
    INDEX 01 01:01:15
  TRACK 30 AUDIO
    TITLE "0:"
    INDEX 01 01:02:28
  TRACK 31 AUDIO
    TITLE "3:cjc151_7382"
    INDEX 01 01:04:01
  TRACK 32 AUDIO
    TITLE "0:"
    INDEX 01 01:08:29
  TRACK 33 AUDIO
    TITLE "2:cjc151_7383"
    INDEX 01 01:10:12
  TRACK 34 AUDIO
    TITLE "0:"
    INDEX 01 01:11:25
  TRACK 35 AUDIO
    TITLE "3:cjc151_7384"
    INDEX 01 01:12:73
  TRACK 36 AUDIO
    TITLE "0:"
    INDEX 01 01:16:73
  TRACK 37 AUDIO
    TITLE "2:cjc151_7385"
    INDEX 01 01:18:53
  TRACK 38 AUDIO
    TITLE "0:"
    INDEX 01 01:19:68
  TRACK 39 AUDIO
    TITLE "3:cjc151_7386"
    INDEX 01 01:21:45
  TRACK 40 AUDIO
    TITLE "0:"
    INDEX 01 01:25:11
  TRACK 41 AUDIO
    TITLE "2:cjc151_7387"
    INDEX 01 01:26:66
  TRACK 42 AUDIO
    TITLE "0:"
    INDEX 01 01:28:24
  TRACK 43 AUDIO
    TITLE "3:cjc151_7388"
    INDEX 01 01:30:01
  TRACK 44 AUDIO
    TITLE "0:"
    INDEX 01 01:33:21
  TRACK 45 AUDIO
    TITLE "2:cjc151_7389"
    INDEX 01 01:35:00
  TRACK 46 AUDIO
    TITLE "0:"
    INDEX 01 01:36:21
  TRACK 47 AUDIO
    TITLE "3:cjc151_7390"
    INDEX 01 01:38:10
  TRACK 48 AUDIO
    TITLE "0:"
    INDEX 01 01:41:50
  TRACK 49 AUDIO
    TITLE "2:cjc151_7391"
    INDEX 01 01:43:29
  TRACK 50 AUDIO
    TITLE "0:"
    INDEX 01 01:45:20
  TRACK 51 AUDIO
    TITLE "3:cjc151_7392"
    INDEX 01 01:47:01
  TRACK 52 AUDIO
    TITLE "0:"
    INDEX 01 01:51:21
  TRACK 53 AUDIO
    TITLE "2:cjc151_7393"
    INDEX 01 01:52:73
  TRACK 54 AUDIO
    TITLE "0:"
    INDEX 01 01:54:58
  TRACK 55 AUDIO
    TITLE "3:cjc151_7394"
    INDEX 01 01:56:37
  TRACK 56 AUDIO
    TITLE "0:"
    INDEX 01 02:00:45
  TRACK 57 AUDIO
    TITLE "2:cjc151_7395"
    INDEX 01 02:02:22
  TRACK 58 AUDIO
    TITLE "0:"
    INDEX 01 02:03:39
  TRACK 59 AUDIO
    TITLE "3:cjc151_7396"
    INDEX 01 02:05:19
  TRACK 60 AUDIO
    TITLE "0:"
    INDEX 01 02:10:49
  TRACK 61 AUDIO
    TITLE "2:cjc151_7397"
    INDEX 01 02:12:29
  TRACK 62 AUDIO
    TITLE "0:"
    INDEX 01 02:13:32
  TRACK 63 AUDIO
    TITLE "3:cjc151_7398"
    INDEX 01 02:15:02
  TRACK 64 AUDIO
    TITLE "0:"
    INDEX 01 02:18:72
  TRACK 65 AUDIO
    TITLE "2:cjc151_7399"
    INDEX 01 02:20:52
  TRACK 66 AUDIO
    TITLE "0:"
    INDEX 01 02:22:41
  TRACK 67 AUDIO
    TITLE "3:cjc151_7400"
    INDEX 01 02:24:18
  TRACK 68 AUDIO
    TITLE "0:"
    INDEX 01 02:28:28
  TRACK 69 AUDIO
    TITLE "2:cjc151_7401"
    INDEX 01 02:30:07
  TRACK 70 AUDIO
    TITLE "0:"
    INDEX 01 02:32:02
  TRACK 71 AUDIO
    TITLE "3:cjc151_7402"
    INDEX 01 02:33:56
  TRACK 72 AUDIO
    TITLE "0:"
    INDEX 01 02:37:36
  TRACK 73 AUDIO
    TITLE "2:cjc151_7403"
    INDEX 01 02:39:27
  TRACK 74 AUDIO
    TITLE "0:"
    INDEX 01 02:40:47
  TRACK 75 AUDIO
    TITLE "3:cjc151_7404"
    INDEX 01 02:42:26
  TRACK 76 AUDIO
    TITLE "0:"
    INDEX 01 02:46:33
  TRACK 77 AUDIO
    TITLE "2:cjc151_7405"
    INDEX 01 02:48:13
  TRACK 78 AUDIO
    TITLE "0:"
    INDEX 01 02:49:49
  TRACK 79 AUDIO
    TITLE "3:cjc151_7406"
    INDEX 01 02:51:29
  TRACK 80 AUDIO
    TITLE "0:"
    INDEX 01 02:55:50
  TRACK 81 AUDIO
    TITLE "2:cjc151_7407"
    INDEX 01 02:57:29
  TRACK 82 AUDIO
    TITLE "0:"
    INDEX 01 02:58:50
  TRACK 83 AUDIO
    TITLE "3:cjc151_7408"
    INDEX 01 03:00:28
  TRACK 84 AUDIO
    TITLE "0:"
    INDEX 01 03:04:53
  TRACK 85 AUDIO
    TITLE "2:cjc151_7409"
    INDEX 01 03:06:30
  TRACK 86 AUDIO
    TITLE "0:"
    INDEX 01 03:08:15
  TRACK 87 AUDIO
    TITLE "3:cjc151_7410"
    INDEX 01 03:09:68
  TRACK 88 AUDIO
    TITLE "0:"
    INDEX 01 03:13:28
